<svg width="19" height="25" viewBox="0 0 19 25" fill="none" xmlns="http://www.w3.org/2000/svg">
<path d="M3.264 9H0.72V0.36H4.14L5.664 5.748L7.188 0.36H10.608V9H8.064V6.36L8.1 5.016L8.244 3.456H8.22L6.648 9H4.68L3.108 3.456H3.084L3.204 4.728L3.264 6.072V9Z" fill="#0FF8C0"/>
<path d="M17.8563 17.868H15.1683C15.1203 17.568 14.9643 17.388 14.7603 17.28C14.5563 17.172 14.3043 17.124 14.0283 17.124C13.4043 17.124 13.1283 17.304 13.1283 17.616C13.1283 18.912 18.0963 18.108 18.0963 21.252C18.0963 23.256 16.4283 24.228 14.0523 24.228C11.7723 24.228 10.2843 22.896 10.2243 21.336H12.9363C12.9963 21.648 13.1643 21.876 13.4043 22.02C13.6323 22.164 13.9323 22.236 14.2083 22.236C14.9163 22.236 15.3843 22.008 15.3843 21.6C15.3843 20.292 10.4163 21.192 10.4163 17.892C10.4163 16.056 12.0003 15.132 14.1603 15.132C16.5603 15.132 17.6523 16.356 17.8563 17.868Z" fill="white"/>
</svg>
